<svg width="120" height="150" viewBox="0 0 120 150" fill="none" xmlns="http://www.w3.org/2000/svg">
<path d="M0 8C0 3.58172 3.58172 0 8 0H112C116.418 0 120 3.58172 120 8V142C120 146.418 116.418 150 112 150H8C3.58172 150 0 146.418 0 142V8Z" fill="#FEF2F3"/>
<path d="M70.0199 79.8198L66.8899 72.4998C66.3199 71.1598 65.4699 70.3998 64.4999 70.3498C63.5399 70.2998 62.6099 70.9698 61.8999 72.2498L59.9999 75.6598C59.5999 76.3798 59.0299 76.8098 58.4099 76.8598C57.7799 76.9198 57.1499 76.5898 56.6399 75.9398L56.4199 75.6598C55.7099 74.7698 54.8299 74.3398 53.9299 74.4298C53.0299 74.5198 52.2599 75.1398 51.7499 76.1498L50.0199 79.5998C49.3999 80.8498 49.4599 82.2998 50.1899 83.4798C50.9199 84.6598 52.1899 85.3698 53.5799 85.3698H66.3399C67.6799 85.3698 68.9299 84.6998 69.6699 83.5798C70.4299 82.4598 70.5499 81.0498 70.0199 79.8198Z" fill="#EA4D55"/>
<path d="M54.9701 71.3801C56.8368 71.3801 58.3501 69.8668 58.3501 68.0001C58.3501 66.1334 56.8368 64.6201 54.9701 64.6201C53.1034 64.6201 51.5901 66.1334 51.5901 68.0001C51.5901 69.8668 53.1034 71.3801 54.9701 71.3801Z" fill="#EA4D55"/>
</svg>
