<svg width="22" height="22" viewBox="0 0 22 22" fill="none" xmlns="http://www.w3.org/2000/svg">
<path d="M10.083 1.83334H8.24967C3.66634 1.83334 1.83301 3.66668 1.83301 8.25001V13.75C1.83301 18.3333 3.66634 20.1667 8.24967 20.1667H13.7497C18.333 20.1667 20.1663 18.3333 20.1663 13.75V11.9167" stroke="#EA4D55" stroke-width="1.375" stroke-linecap="round" stroke-linejoin="round"/>
<path d="M14.7027 2.76835L7.4794 9.99168C7.2044 10.2667 6.9294 10.8075 6.8744 11.2017L6.48023 13.9609C6.33357 14.96 7.0394 15.6567 8.03857 15.5192L10.7977 15.125C11.1827 15.07 11.7236 14.795 12.0077 14.52L19.2311 7.29668C20.4777 6.05002 21.0644 4.60168 19.2311 2.76835C17.3977 0.935018 15.9494 1.52168 14.7027 2.76835Z" stroke="#EA4D55" stroke-width="1.375" stroke-miterlimit="10" stroke-linecap="round" stroke-linejoin="round"/>
<path d="M13.668 3.80417C14.2821 5.995 15.9963 7.70917 18.1963 8.3325" stroke="#EA4D55" stroke-width="1.375" stroke-miterlimit="10" stroke-linecap="round" stroke-linejoin="round"/>
</svg>
