<svg width="20" height="20" viewBox="0 0 20 20" fill="none" xmlns="http://www.w3.org/2000/svg">
<path d="M10.1331 9.05835C10.0498 9.05002 9.9498 9.05002 9.85814 9.05835C7.8748 8.99169 6.2998 7.36669 6.2998 5.36669C6.2998 3.32502 7.9498 1.66669 9.9998 1.66669C12.0415 1.66669 13.6998 3.32502 13.6998 5.36669C13.6915 7.36669 12.1165 8.99169 10.1331 9.05835Z" stroke="white" stroke-width="1.25" stroke-linecap="round" stroke-linejoin="round"/>
<path d="M5.9666 12.1333C3.94993 13.4833 3.94993 15.6833 5.9666 17.025C8.25827 18.5583 12.0166 18.5583 14.3083 17.025C16.3249 15.675 16.3249 13.475 14.3083 12.1333C12.0249 10.6083 8.2666 10.6083 5.9666 12.1333Z" stroke="white" stroke-width="1.25" stroke-linecap="round" stroke-linejoin="round"/>
</svg>
