<svg width="20" height="20" viewBox="0 0 20 20" fill="none" xmlns="http://www.w3.org/2000/svg">
<path d="M7.63338 9.05834C7.55005 9.05 7.45005 9.05 7.35838 9.05834C5.37505 8.99167 3.80005 7.36667 3.80005 5.36667C3.80005 3.32501 5.45005 1.66667 7.50005 1.66667C9.54172 1.66667 11.2 3.32501 11.2 5.36667C11.1917 7.36667 9.61672 8.99167 7.63338 9.05834Z" stroke="currentColor" stroke-width="1.25" stroke-linecap="round" stroke-linejoin="round"/>
<path d="M13.675 3.33333C15.2916 3.33333 16.5916 4.64166 16.5916 6.24999C16.5916 7.82499 15.3417 9.10833 13.7833 9.16666C13.7167 9.15833 13.6417 9.15833 13.5667 9.16666" stroke="currentColor" stroke-width="1.25" stroke-linecap="round" stroke-linejoin="round"/>
<path d="M3.4666 12.1333C1.44993 13.4833 1.44993 15.6833 3.4666 17.025C5.75827 18.5583 9.5166 18.5583 11.8083 17.025C13.8249 15.675 13.8249 13.475 11.8083 12.1333C9.52494 10.6083 5.7666 10.6083 3.4666 12.1333Z" stroke="currentColor" stroke-width="1.25" stroke-linecap="round" stroke-linejoin="round"/>
<path d="M15.2833 16.6667C15.8833 16.5417 16.45 16.3 16.9167 15.9417C18.2167 14.9667 18.2167 13.3583 16.9167 12.3833C16.4583 12.0333 15.9 11.8 15.3083 11.6667" stroke="currentColor" stroke-width="1.25" stroke-linecap="round" stroke-linejoin="round"/>
</svg>
