<svg width="16" height="16" viewBox="0 0 16 16" fill="none" xmlns="http://www.w3.org/2000/svg">
<path d="M14 3.98668C11.78 3.76668 9.54667 3.65335 7.32 3.65335C6 3.65335 4.68 3.72002 3.36 3.85335L2 3.98668" fill="white"/>
<path d="M14 3.98668C11.78 3.76668 9.54667 3.65335 7.32 3.65335C6 3.65335 4.68 3.72002 3.36 3.85335L2 3.98668" stroke="white" stroke-width="1.2" stroke-linecap="round" stroke-linejoin="round"/>
<path d="M5.6665 3.31331L5.81317 2.43998C5.91984 1.80665 5.99984 1.33331 7.1265 1.33331H8.87317C9.99984 1.33331 10.0865 1.83331 10.1865 2.44665L10.3332 3.31331" fill="white"/>
<path d="M5.6665 3.31331L5.81317 2.43998C5.91984 1.80665 5.99984 1.33331 7.1265 1.33331H8.87317C9.99984 1.33331 10.0865 1.83331 10.1865 2.44665L10.3332 3.31331" stroke="white" stroke-width="1.2" stroke-linecap="round" stroke-linejoin="round"/>
<path d="M12.5667 6.09332L12.1334 12.8067C12.06 13.8533 12 14.6667 10.14 14.6667H5.86002C4.00002 14.6667 3.94002 13.8533 3.86668 12.8067L3.43335 6.09332" fill="white"/>
<path d="M12.5667 6.09332L12.1334 12.8067C12.06 13.8533 12 14.6667 10.14 14.6667H5.86002C4.00002 14.6667 3.94002 13.8533 3.86668 12.8067L3.43335 6.09332" stroke="white" stroke-width="1.2" stroke-linecap="round" stroke-linejoin="round"/>
<path d="M6.88672 11H9.10672" stroke="white" stroke-width="1.2" stroke-linecap="round" stroke-linejoin="round"/>
<path d="M6.3335 8.33331H9.66683" stroke="white" stroke-width="1.2" stroke-linecap="round" stroke-linejoin="round"/>
</svg>
